<svg data-v-423bf9ae="" xmlns="http://www.w3.org/2000/svg" viewBox="0 0 6654 6375" class="iconLeft"><!----><!----><!----><g data-v-423bf9ae="" id="00e69075-ceca-4247-a117-58902909b88f" fill="black" transform="matrix(5.61797736755893,0,0,5.61797736755893,6375.283278864905,3135.650667528389)"><path d="M4.05 14.52C6.50 14.52 7.78 13.17 7.78 11.34C7.78 9.80 6.87 8.88 5.31 8.60L4.28 8.41C3.33 8.25 2.94 7.95 2.94 7.28C2.94 6.51 3.42 6.12 4.35 6.12C5.24 6.12 5.96 6.47 6.48 7.04L7.67 5.71C6.99 4.91 5.84 4.41 4.34 4.41C2.13 4.41 0.83 5.50 0.83 7.38C0.83 8.81 1.57 9.88 3.32 10.18L4.34 10.35C5.29 10.50 5.66 10.82 5.66 11.51C5.66 12.35 5.11 12.81 4.12 12.81C3.25 12.81 2.37 12.45 1.65 11.66L0.43 13.01C1.18 13.93 2.42 14.52 4.05 14.52ZM12.80 14.52C14.35 14.52 15.33 13.93 15.89 13.24L14.77 12.03C14.32 12.56 13.72 12.92 12.87 12.92C11.76 12.92 11.16 12.29 11.16 11.37L11.16 11.24L16.10 11.24L16.10 10.63C16.10 8.37 14.77 6.96 12.61 6.96C10.44 6.96 9.10 8.40 9.10 10.77C9.10 13.08 10.37 14.52 12.80 14.52ZM12.63 8.44C13.52 8.44 14.07 9.03 14.07 9.97L14.07 10.08L11.16 10.08L11.16 9.97C11.16 9.04 11.73 8.44 12.63 8.44ZM17.84 14.35L23.95 14.35L23.95 12.74L21.57 12.74L21.57 10.60C21.57 9.73 22.11 9.03 23.13 9.03L24.67 9.03L24.67 7.13L23.98 7.13C22.55 7.13 21.94 8.11 21.67 9.17L21.57 9.17L21.57 7.13L17.84 7.13L17.84 8.74L19.50 8.74L19.50 12.74L17.84 12.74ZM29.85 6.20C30.77 6.20 31.09 5.77 31.09 5.22L31.09 4.82C31.09 4.26 30.77 3.84 29.85 3.84C28.92 3.84 28.60 4.26 28.60 4.82L28.60 5.22C28.60 5.77 28.92 6.20 29.85 6.20ZM26.52 14.35L33.01 14.35L33.01 12.74L30.88 12.74L30.88 7.13L26.52 7.13L26.52 8.74L28.81 8.74L28.81 12.74L26.52 12.74ZM39.02 14.35L41.09 14.35L41.09 7.13L39.02 7.13L39.02 11.87C39.02 12.57 38.39 12.92 37.74 12.92C36.93 12.92 36.53 12.43 36.53 11.52L36.53 7.13L34.45 7.13L34.45 11.80C34.45 13.55 35.42 14.52 36.81 14.52C37.97 14.52 38.61 13.85 38.93 13.03L39.02 13.03ZM46.12 14.52C48.26 14.52 49.48 13.57 49.48 12.07C49.48 10.70 48.45 10.15 47.15 9.95L46.00 9.77C45.44 9.69 45.11 9.56 45.11 9.14C45.11 8.67 45.53 8.41 46.31 8.41C47.25 8.41 47.94 8.78 48.36 9.24L49.39 8.06C48.79 7.36 47.80 6.96 46.38 6.96C44.30 6.96 43.08 7.87 43.08 9.38C43.08 10.75 44.10 11.30 45.39 11.49L46.55 11.68C47.11 11.76 47.45 11.89 47.45 12.29C47.45 12.81 46.94 13.06 46.13 13.06C45.16 13.06 44.41 12.70 43.85 12.08L42.69 13.16C43.27 14 44.52 14.52 46.12 14.52Z"></path></g><!----><g data-v-423bf9ae="" id="ea42ebc5-8ab6-4405-8bdf-03cb97ac8ed3" transform="matrix(8.415889485677083,0,0,8.415889485677083,-1129.655161054805,-1121.6877333726106)" stroke="none" fill="black"><path d="M439.62 422.22l-58.38-58.38c-3.91-3.91-3.91-10.24 0-14.14l58.38-58.38 14.14 14.14-51.31 51.31 51.31 51.31-14.14 14.14zM584.38 422.22l-14.14-14.14 51.31-51.31-51.31-51.31 14.14-14.14 58.38 58.38c3.9 3.91 3.9 10.24 0 14.14l-58.38 58.38zM480.932 414.363l43.315-121.827 18.844 6.7-43.315 121.827z"></path><path d="M830.2 779.33H193.8c-32.82 0-59.52-26.7-59.52-59.52v-440.2c0-32.82 26.7-59.52 59.52-59.52h89.72v20H193.8c-21.79 0-39.52 17.73-39.52 39.52v440.2c0 21.79 17.73 39.52 39.52 39.52h636.4c21.79 0 39.52-17.73 39.52-39.52v-440.2c0-21.79-17.73-39.52-39.52-39.52h-89.72v-20h89.72c32.82 0 59.52 26.7 59.52 59.52v440.2c0 32.82-26.7 59.52-59.52 59.52z"></path><path d="M586.68 890.72H437.31c-5.52 0-10-4.48-10-10V769.33c0-5.52 4.48-10 10-10h149.37c5.52 0 10 4.48 10 10v111.39c0 5.52-4.48 10-10 10zm-139.37-20h129.37v-91.39H447.31v91.39zM144.28 653.17h735.44v20H144.28z"></path><path d="M364.09 870.72h295.82v20H364.09zM537.94 580.25h-51.87c-10.64 0-19.72-7.95-21.14-18.49l-2.38-17.68c-.07-.53-.48-.97-1.03-1.12a191.887 191.887 0 0 1-45.45-18.84c-.5-.29-1.11-.27-1.53.06l-14.2 10.83c-8.45 6.45-20.5 5.65-28.02-1.87l-36.69-36.68c-7.52-7.52-8.33-19.57-1.87-28.02l10.84-14.2c.33-.43.35-1.03.06-1.53a191.715 191.715 0 0 1-18.84-45.45c-.15-.56-.59-.96-1.12-1.03l-17.7-2.39c-10.54-1.42-18.49-10.5-18.49-21.14v-51.87c0-10.64 7.95-19.73 18.49-21.14l17.68-2.38c.53-.07.97-.48 1.12-1.03a191.715 191.715 0 0 1 18.84-45.45c.29-.5.27-1.11-.06-1.53l-10.84-14.2c-6.45-8.46-5.65-20.5 1.87-28.02l36.68-36.69c7.52-7.52 19.57-8.33 28.02-1.87l14.2 10.84c.43.32 1.03.35 1.53.06a191.715 191.715 0 0 1 45.45-18.84c.55-.15.96-.59 1.03-1.12l2.38-17.68c1.42-10.54 10.5-18.49 21.14-18.49h51.87c10.64 0 19.72 7.95 21.14 18.49l2.37 17.68c.07.53.48.97 1.03 1.12a191.715 191.715 0 0 1 45.45 18.84c.5.29 1.11.27 1.53-.06l14.2-10.84c8.45-6.45 20.5-5.65 28.02 1.87l36.69 36.68c7.52 7.52 8.33 19.57 1.87 28.02l-10.83 14.2c-.33.43-.35 1.03-.06 1.53a191.715 191.715 0 0 1 18.84 45.45c.15.56.59.96 1.12 1.03l17.68 2.38c10.54 1.42 18.49 10.5 18.49 21.14v51.87c0 10.64-7.95 19.73-18.49 21.14l-17.68 2.38c-.53.07-.97.48-1.12 1.03a191.715 191.715 0 0 1-18.84 45.45c-.29.5-.27 1.11.06 1.53l10.83 14.2c6.45 8.46 5.65 20.5-1.87 28.02l-36.69 36.69c-7.52 7.52-19.57 8.33-28.02 1.87l-14.2-10.83c-.43-.33-1.03-.35-1.53-.06a191.887 191.887 0 0 1-45.45 18.84c-.56.15-.96.59-1.03 1.12l-2.37 17.68c-1.39 10.55-10.48 18.5-21.11 18.5zm-122.62-76.34c3.67 0 7.37.95 10.71 2.87 12.8 7.35 26.5 13.03 40.71 16.87 8.35 2.26 14.49 9.23 15.63 17.77l2.38 17.68c.09.66.65 1.15 1.32 1.15h51.87c.66 0 1.23-.5 1.32-1.15l2.37-17.68c1.15-8.53 7.28-15.51 15.63-17.77 14.21-3.84 27.9-9.52 40.71-16.87 7.51-4.31 16.78-3.72 23.63 1.5l14.2 10.83c.53.4 1.28.35 1.75-.12l36.69-36.68c.47-.47.52-1.22.12-1.75l-10.83-14.2c-5.22-6.85-5.81-16.12-1.5-23.63 7.35-12.8 13.03-26.5 16.88-40.71 2.26-8.35 9.23-14.49 17.77-15.63l17.68-2.38c.66-.09 1.15-.66 1.15-1.32v-51.87c0-.66-.5-1.23-1.15-1.32l-17.68-2.38c-8.53-1.15-15.51-7.28-17.77-15.63a171.844 171.844 0 0 0-16.87-40.71c-4.31-7.51-3.72-16.78 1.5-23.63l10.84-14.2c.4-.53.35-1.28-.12-1.75l-36.68-36.68a1.34 1.34 0 0 0-1.75-.12l-14.2 10.84c-6.85 5.23-16.12 5.82-23.63 1.5a171.803 171.803 0 0 0-40.7-16.88c-8.35-2.26-14.49-9.23-15.63-17.77l-2.37-17.68c-.09-.66-.66-1.15-1.32-1.15h-51.87c-.66 0-1.23.5-1.32 1.15l-2.38 17.68c-1.15 8.53-7.28 15.51-15.63 17.77-14.21 3.84-27.9 9.52-40.7 16.88-7.51 4.32-16.78 3.73-23.63-1.5l-14.2-10.84a1.34 1.34 0 0 0-1.75.12l-36.68 36.68a1.34 1.34 0 0 0-.12 1.75l10.84 14.2c5.23 6.85 5.81 16.12 1.5 23.63-7.36 12.8-13.03 26.5-16.88 40.7-2.26 8.35-9.23 14.49-17.77 15.63l-17.68 2.38c-.66.09-1.15.66-1.15 1.32v51.87c0 .66.5 1.23 1.15 1.32l17.68 2.38c8.53 1.15 15.51 7.28 17.77 15.63 3.84 14.21 9.52 27.9 16.88 40.7 4.31 7.51 3.73 16.78-1.5 23.63l-10.84 14.2c-.4.53-.35 1.28.12 1.75L386.46 519c.47.47 1.22.52 1.75.12l14.2-10.83c3.79-2.91 8.33-4.38 12.91-4.38zM219.34 565.63h93.87v20h-93.87zM219.34 481.13h54.72v20h-54.72zM219.34 396.63h27.36v20h-27.36zM219.34 312.13h27.36v20h-27.36zM710.79 565.63h93.87v20h-93.87zM749.94 481.13h54.72v20h-54.72zM777.3 396.63h27.36v20H777.3zM777.3 312.13h27.36v20H777.3z"></path></g><!----></svg>