<svg data-v-fde0c5aa="" xmlns="http://www.w3.org/2000/svg" viewBox="0 0 300 300" class="font"><!----><defs data-v-fde0c5aa=""><!----></defs><rect data-v-fde0c5aa="" fill="#EFF0F1" x="0" y="0" width="300px" height="300px" class="logo-background-square"></rect><defs data-v-fde0c5aa=""><linearGradient data-v-fde0c5aa="" gradientTransform="rotate(25)" id="6c7cb605-f74b-4aa8-93ca-c951244bbd72" x1="0%" y1="0%" x2="100%" y2="0%"><stop data-v-fde0c5aa="" offset="0%" stop-color="#574851" stop-opacity="1"></stop><stop data-v-fde0c5aa="" offset="100%" stop-color="#95A8B1" stop-opacity="1"></stop></linearGradient></defs><g data-v-fde0c5aa="" id="7281f709-7a36-402b-9619-1b794303e122" fill="url(#6c7cb605-f74b-4aa8-93ca-c951244bbd72)" transform="matrix(4.485219233882787,0,0,4.485219233882787,38.07135569734963,108.82568606417573)"><path d="M4.05 14.52C6.50 14.52 7.78 13.17 7.78 11.34C7.78 9.80 6.87 8.88 5.31 8.60L4.28 8.41C3.33 8.25 2.94 7.95 2.94 7.28C2.94 6.51 3.42 6.12 4.35 6.12C5.24 6.12 5.96 6.47 6.48 7.04L7.67 5.71C6.99 4.91 5.84 4.41 4.34 4.41C2.13 4.41 0.83 5.50 0.83 7.38C0.83 8.81 1.57 9.88 3.32 10.18L4.34 10.35C5.29 10.50 5.66 10.82 5.66 11.51C5.66 12.35 5.11 12.81 4.12 12.81C3.25 12.81 2.37 12.45 1.65 11.66L0.43 13.01C1.18 13.93 2.42 14.52 4.05 14.52ZM12.80 14.52C14.35 14.52 15.33 13.93 15.89 13.24L14.77 12.03C14.32 12.56 13.72 12.92 12.87 12.92C11.76 12.92 11.16 12.29 11.16 11.37L11.16 11.24L16.10 11.24L16.10 10.63C16.10 8.37 14.77 6.96 12.61 6.96C10.44 6.96 9.10 8.40 9.10 10.77C9.10 13.08 10.37 14.52 12.80 14.52ZM12.63 8.44C13.52 8.44 14.07 9.03 14.07 9.97L14.07 10.08L11.16 10.08L11.16 9.97C11.16 9.04 11.73 8.44 12.63 8.44ZM17.84 14.35L23.95 14.35L23.95 12.74L21.57 12.74L21.57 10.60C21.57 9.73 22.11 9.03 23.13 9.03L24.67 9.03L24.67 7.13L23.98 7.13C22.55 7.13 21.94 8.11 21.67 9.17L21.57 9.17L21.57 7.13L17.84 7.13L17.84 8.74L19.50 8.74L19.50 12.74L17.84 12.74ZM29.85 6.20C30.77 6.20 31.09 5.77 31.09 5.22L31.09 4.82C31.09 4.26 30.77 3.84 29.85 3.84C28.92 3.84 28.60 4.26 28.60 4.82L28.60 5.22C28.60 5.77 28.92 6.20 29.85 6.20ZM26.52 14.35L33.01 14.35L33.01 12.74L30.88 12.74L30.88 7.13L26.52 7.13L26.52 8.74L28.81 8.74L28.81 12.74L26.52 12.74ZM39.02 14.35L41.09 14.35L41.09 7.13L39.02 7.13L39.02 11.87C39.02 12.57 38.39 12.92 37.74 12.92C36.93 12.92 36.53 12.43 36.53 11.52L36.53 7.13L34.45 7.13L34.45 11.80C34.45 13.55 35.42 14.52 36.81 14.52C37.97 14.52 38.61 13.85 38.93 13.03L39.02 13.03ZM46.12 14.52C48.26 14.52 49.48 13.57 49.48 12.07C49.48 10.70 48.45 10.15 47.15 9.95L46.00 9.77C45.44 9.69 45.11 9.56 45.11 9.14C45.11 8.67 45.53 8.41 46.31 8.41C47.25 8.41 47.94 8.78 48.36 9.24L49.39 8.06C48.79 7.36 47.80 6.96 46.38 6.96C44.30 6.96 43.08 7.87 43.08 9.38C43.08 10.75 44.10 11.30 45.39 11.49L46.55 11.68C47.11 11.76 47.45 11.89 47.45 12.29C47.45 12.81 46.94 13.06 46.13 13.06C45.16 13.06 44.41 12.70 43.85 12.08L42.69 13.16C43.27 14 44.52 14.52 46.12 14.52Z"></path></g><!----><!----></svg>